<svg width="512" height="491" viewBox="0 0 512 491" fill="none" xmlns="http://www.w3.org/2000/svg">
<path d="M449.418 339.477C456.219 339.477 462.168 334.86 463.918 328.286L511.5 149.094C512.652 144.75 511.797 140.106 509.168 136.461C506.539 132.813 502.414 130.532 497.926 130.254L87.3984 104.895L76.2656 36.3637C75.4999 31.6567 72.539 27.5903 68.289 25.4145L21.8359 1.64886C14.4609 -2.12067 5.42182 0.7973 1.64839 8.1723C-2.12505 15.5473 0.796823 24.5825 8.17182 28.3559L47.871 48.6684L92.664 324.418L85.1328 371.938C56.9374 376.762 35.4062 401.375 35.4062 430.942C35.4062 463.961 62.2539 490.989 95.2539 490.989C125.812 490.989 151.082 467.477 154.648 438.477H359.445C363.012 467.477 388.281 490.989 418.84 490.989C451.84 490.989 478.687 464.043 478.687 431.024C478.687 398.008 451.84 371.27 418.84 371.27C393.906 371.27 372.496 386.477 363.512 408.477H150.582C144.105 392.477 131.168 380.344 115.109 374.672L120.668 339.477H449.418ZM418.84 401.063C435.297 401.063 448.687 414.465 448.687 430.942C448.687 447.418 435.297 460.825 418.84 460.825C402.387 460.825 388.996 447.418 388.996 430.942C388.996 414.465 402.387 401.063 418.84 401.063V401.063ZM125.098 430.942C125.098 447.418 111.711 460.825 95.2539 460.825C78.7968 460.825 65.4062 447.418 65.4062 430.942C65.4062 414.465 78.7968 401.063 95.2539 401.063C111.711 401.063 125.098 414.465 125.098 430.942ZM92.3281 135.297L477.805 159.129L437.883 309.477H120.613L92.3281 135.297Z" fill="white"/>
</svg>
