<svg width="19" height="19" viewBox="0 0 19 19" fill="none" xmlns="http://www.w3.org/2000/svg">
<path d="M9.5 17.8496C9.369 17.8496 9.23853 17.804 9.13362 17.7121C8.32367 17.0038 7.55339 16.3471 6.82879 15.7296C2.7393 12.2446 0 9.94194 0 6.58743C0 3.48784 2.19083 1.15039 5.04688 1.15039C7.29789 1.15039 8.74278 2.72301 9.5 4.13907C10.2572 2.72301 11.7021 1.15039 13.9531 1.15039C16.8092 1.15039 19 3.48784 19 6.58743C19 9.94197 16.2607 12.2446 12.1712 15.7296C11.4466 16.3471 10.6763 17.0038 9.86638 17.7121C9.76147 17.804 9.631 17.8496 9.5 17.8496Z" fill="#FD3018"/>
<path d="M9.86638 17.7121C10.6763 17.0038 11.4466 16.3471 12.1712 15.7296C16.2607 12.2446 19 9.94194 19 6.58743C19 3.48784 16.8092 1.15039 13.9531 1.15039C11.7021 1.15039 10.2572 2.72301 9.5 4.13907V17.8496C9.631 17.8496 9.76147 17.804 9.86638 17.7121Z" fill="#E61E14"/>
</svg>
