<svg width="19" height="17" viewBox="0 0 19 17" fill="none" xmlns="http://www.w3.org/2000/svg">
<path d="M17.6137 1.64898C16.6766 0.585647 15.3766 6.10352e-05 13.9531 6.10352e-05C11.9511 6.10352e-05 10.6837 1.19572 9.97296 2.19879C9.78856 2.45908 9.6317 2.72007 9.5 2.96566C9.3683 2.72007 9.21147 2.45908 9.02704 2.19879C8.31632 1.19572 7.04885 6.10352e-05 5.04688 6.10352e-05C3.62343 6.10352e-05 2.32338 0.585684 1.38622 1.64902C0.49233 2.66336 0 4.02186 0 5.47425C0 7.05522 0.61724 8.52568 1.94249 10.1018C3.12691 11.5105 4.83086 12.9625 6.804 14.6439C7.53925 15.2704 8.29959 15.9183 9.10905 16.6266L9.13336 16.6479C9.2383 16.7398 9.36915 16.7857 9.5 16.7857C9.63085 16.7857 9.7617 16.7397 9.86664 16.6479L9.89095 16.6266C10.7004 15.9183 11.4607 15.2705 12.1961 14.6438C14.1691 12.9625 15.8731 11.5105 17.0575 10.1018C18.3828 8.52564 19 7.05522 19 5.47425C19 4.02186 18.5077 2.66336 17.6137 1.64898ZM11.474 13.7965C10.8401 14.3366 10.1878 14.8925 9.5 15.4904C8.81221 14.8925 8.15987 14.3366 7.52593 13.7964C3.66437 10.5058 1.11328 8.33193 1.11328 5.47425C1.11328 4.29306 1.50683 3.19596 2.22144 2.38508C2.94426 1.565 3.94766 1.11334 5.04688 1.11334C6.57315 1.11334 7.55977 2.05362 8.11864 2.84242C8.61995 3.54987 8.88154 4.26304 8.97075 4.53679C9.04537 4.76594 9.25901 4.92102 9.5 4.92102C9.74099 4.92102 9.95463 4.76594 10.0293 4.53679C10.1185 4.26304 10.38 3.54987 10.8814 2.84238C11.4402 2.05362 12.4269 1.11334 13.9531 1.11334C15.0523 1.11334 16.0557 1.565 16.7785 2.38508C17.4932 3.19596 17.8867 4.29306 17.8867 5.47425C17.8867 8.33193 15.3356 10.5058 11.474 13.7965Z" fill="white"/>
</svg>
