<svg width="71" height="40" viewBox="0 0 71 40" fill="none" xmlns="http://www.w3.org/2000/svg">
<rect y="20" width="50" height="20" fill="#FC4646"/>
<path d="M8.77832 32.6426C8.77832 32.1445 8.60254 31.7637 8.25098 31.5C7.89941 31.2305 7.2666 30.9492 6.35254 30.6562C5.43848 30.3574 4.71484 30.0645 4.18164 29.7773C2.72852 28.9922 2.00195 27.9346 2.00195 26.6045C2.00195 25.9131 2.19531 25.2979 2.58203 24.7588C2.97461 24.2139 3.53418 23.7891 4.26074 23.4844C4.99316 23.1797 5.81348 23.0273 6.72168 23.0273C7.63574 23.0273 8.4502 23.1943 9.16504 23.5283C9.87988 23.8564 10.4336 24.3223 10.8262 24.9258C11.2246 25.5293 11.4238 26.2148 11.4238 26.9824H8.78711C8.78711 26.3965 8.60254 25.9424 8.2334 25.6201C7.86426 25.292 7.3457 25.1279 6.67773 25.1279C6.0332 25.1279 5.53223 25.2656 5.1748 25.541C4.81738 25.8105 4.63867 26.168 4.63867 26.6133C4.63867 27.0293 4.84668 27.3779 5.2627 27.6592C5.68457 27.9404 6.30273 28.2041 7.11719 28.4502C8.61719 28.9014 9.70996 29.4609 10.3955 30.1289C11.0811 30.7969 11.4238 31.6289 11.4238 32.625C11.4238 33.7324 11.0049 34.6025 10.167 35.2354C9.3291 35.8623 8.20117 36.1758 6.7832 36.1758C5.79883 36.1758 4.90234 35.9971 4.09375 35.6396C3.28516 35.2764 2.66699 34.7812 2.23926 34.1543C1.81738 33.5273 1.60645 32.8008 1.60645 31.9746H4.25195C4.25195 33.3867 5.0957 34.0928 6.7832 34.0928C7.41016 34.0928 7.89941 33.9668 8.25098 33.7148C8.60254 33.457 8.77832 33.0996 8.77832 32.6426ZM23.6318 36H20.9951V30.5156H15.8535V36H13.2168V23.2031H15.8535V28.3887H20.9951V23.2031H23.6318V36ZM36.4551 29.8916C36.4551 31.1514 36.2324 32.2559 35.7871 33.2051C35.3418 34.1543 34.7031 34.8867 33.8711 35.4023C33.0449 35.918 32.0957 36.1758 31.0234 36.1758C29.9629 36.1758 29.0166 35.9209 28.1846 35.4111C27.3525 34.9014 26.708 34.1748 26.251 33.2314C25.7939 32.2822 25.5625 31.1924 25.5566 29.9619V29.3291C25.5566 28.0693 25.7822 26.9619 26.2334 26.0068C26.6904 25.0459 27.332 24.3105 28.1582 23.8008C28.9902 23.2852 29.9395 23.0273 31.0059 23.0273C32.0723 23.0273 33.0186 23.2852 33.8447 23.8008C34.6768 24.3105 35.3184 25.0459 35.7695 26.0068C36.2266 26.9619 36.4551 28.0664 36.4551 29.3203V29.8916ZM33.7832 29.3115C33.7832 27.9697 33.543 26.9502 33.0625 26.2529C32.582 25.5557 31.8965 25.207 31.0059 25.207C30.1211 25.207 29.4385 25.5527 28.958 26.2441C28.4775 26.9297 28.2344 27.9375 28.2285 29.2676V29.8916C28.2285 31.1982 28.4688 32.2119 28.9492 32.9326C29.4297 33.6533 30.1211 34.0137 31.0234 34.0137C31.9082 34.0137 32.5879 33.668 33.0625 32.9766C33.5371 32.2793 33.7773 31.2656 33.7832 29.9355V29.3115ZM41.0078 31.4912V36H38.3711V23.2031H43.3633C44.3242 23.2031 45.168 23.3789 45.8945 23.7305C46.627 24.082 47.1895 24.583 47.582 25.2334C47.9746 25.8779 48.1709 26.6133 48.1709 27.4395C48.1709 28.6934 47.7402 29.6836 46.8789 30.4102C46.0234 31.1309 44.8369 31.4912 43.3193 31.4912H41.0078ZM41.0078 29.3555H43.3633C44.0605 29.3555 44.5908 29.1914 44.9541 28.8633C45.3232 28.5352 45.5078 28.0664 45.5078 27.457C45.5078 26.8301 45.3232 26.3232 44.9541 25.9365C44.585 25.5498 44.0752 25.3506 43.4248 25.3389H41.0078V29.3555Z" fill="white"/>
<path d="M11.1885 12.7373C11.0889 14.1143 10.5791 15.1982 9.65918 15.9893C8.74512 16.7803 7.53809 17.1758 6.03809 17.1758C4.39746 17.1758 3.10547 16.625 2.16211 15.5234C1.22461 14.416 0.755859 12.8984 0.755859 10.9707V10.1885C0.755859 8.95801 0.972656 7.87402 1.40625 6.93652C1.83984 5.99902 2.45801 5.28125 3.26074 4.7832C4.06934 4.2793 5.00684 4.02734 6.07324 4.02734C7.5498 4.02734 8.73926 4.42285 9.6416 5.21387C10.5439 6.00488 11.0654 7.11523 11.2061 8.54492H8.56934C8.50488 7.71875 8.27344 7.12109 7.875 6.75195C7.48242 6.37695 6.88184 6.18945 6.07324 6.18945C5.19434 6.18945 4.53516 6.50586 4.0957 7.13867C3.66211 7.76562 3.43945 8.74121 3.42773 10.0654V11.0322C3.42773 12.415 3.63574 13.4258 4.05176 14.0645C4.47363 14.7031 5.13574 15.0225 6.03809 15.0225C6.85254 15.0225 7.45898 14.8379 7.85742 14.4688C8.26172 14.0938 8.49316 13.5166 8.55176 12.7373H11.1885ZM23.4316 10.8916C23.4316 12.1514 23.209 13.2559 22.7637 14.2051C22.3184 15.1543 21.6797 15.8867 20.8477 16.4023C20.0215 16.918 19.0723 17.1758 18 17.1758C16.9395 17.1758 15.9932 16.9209 15.1611 16.4111C14.3291 15.9014 13.6846 15.1748 13.2275 14.2314C12.7705 13.2822 12.5391 12.1924 12.5332 10.9619V10.3291C12.5332 9.06934 12.7588 7.96191 13.21 7.00684C13.667 6.0459 14.3086 5.31055 15.1348 4.80078C15.9668 4.28516 16.916 4.02734 17.9824 4.02734C19.0488 4.02734 19.9951 4.28516 20.8213 4.80078C21.6533 5.31055 22.2949 6.0459 22.7461 7.00684C23.2031 7.96191 23.4316 9.06641 23.4316 10.3203V10.8916ZM20.7598 10.3115C20.7598 8.96973 20.5195 7.9502 20.0391 7.25293C19.5586 6.55566 18.873 6.20703 17.9824 6.20703C17.0977 6.20703 16.415 6.55273 15.9346 7.24414C15.4541 7.92969 15.2109 8.9375 15.2051 10.2676V10.8916C15.2051 12.1982 15.4453 13.2119 15.9258 13.9326C16.4062 14.6533 17.0977 15.0137 18 15.0137C18.8848 15.0137 19.5645 14.668 20.0391 13.9766C20.5137 13.2793 20.7539 12.2656 20.7598 10.9355V10.3115ZM28.793 4.20312L32.0801 13.4844L35.3496 4.20312H38.8125V17H36.167V13.502L36.4307 7.46387L32.9766 17H31.166L27.7207 7.47266L27.9844 13.502V17H25.3477V4.20312H28.793ZM43.9189 17H41.2822V4.20312H43.9189V17ZM56.417 12.7373C56.3174 14.1143 55.8076 15.1982 54.8877 15.9893C53.9736 16.7803 52.7666 17.1758 51.2666 17.1758C49.626 17.1758 48.334 16.625 47.3906 15.5234C46.4531 14.416 45.9844 12.8984 45.9844 10.9707V10.1885C45.9844 8.95801 46.2012 7.87402 46.6348 6.93652C47.0684 5.99902 47.6865 5.28125 48.4893 4.7832C49.2979 4.2793 50.2354 4.02734 51.3018 4.02734C52.7783 4.02734 53.9678 4.42285 54.8701 5.21387C55.7725 6.00488 56.2939 7.11523 56.4346 8.54492H53.7979C53.7334 7.71875 53.502 7.12109 53.1035 6.75195C52.7109 6.37695 52.1104 6.18945 51.3018 6.18945C50.4229 6.18945 49.7637 6.50586 49.3242 7.13867C48.8906 7.76562 48.668 8.74121 48.6562 10.0654V11.0322C48.6562 12.415 48.8643 13.4258 49.2803 14.0645C49.7021 14.7031 50.3643 15.0225 51.2666 15.0225C52.0811 15.0225 52.6875 14.8379 53.0859 14.4688C53.4902 14.0938 53.7217 13.5166 53.7803 12.7373H56.417ZM64.7842 13.6426C64.7842 13.1445 64.6084 12.7637 64.2568 12.5C63.9053 12.2305 63.2725 11.9492 62.3584 11.6562C61.4443 11.3574 60.7207 11.0645 60.1875 10.7773C58.7344 9.99219 58.0078 8.93457 58.0078 7.60449C58.0078 6.91309 58.2012 6.29785 58.5879 5.75879C58.9805 5.21387 59.54 4.78906 60.2666 4.48438C60.999 4.17969 61.8193 4.02734 62.7275 4.02734C63.6416 4.02734 64.4561 4.19434 65.1709 4.52832C65.8857 4.85645 66.4395 5.32227 66.832 5.92578C67.2305 6.5293 67.4297 7.21484 67.4297 7.98242H64.793C64.793 7.39648 64.6084 6.94238 64.2393 6.62012C63.8701 6.29199 63.3516 6.12793 62.6836 6.12793C62.0391 6.12793 61.5381 6.26563 61.1807 6.54102C60.8232 6.81055 60.6445 7.16797 60.6445 7.61328C60.6445 8.0293 60.8525 8.37793 61.2686 8.65918C61.6904 8.94043 62.3086 9.2041 63.123 9.4502C64.623 9.90137 65.7158 10.4609 66.4014 11.1289C67.0869 11.7969 67.4297 12.6289 67.4297 13.625C67.4297 14.7324 67.0107 15.6025 66.1729 16.2354C65.335 16.8623 64.207 17.1758 62.7891 17.1758C61.8047 17.1758 60.9082 16.9971 60.0996 16.6396C59.291 16.2764 58.6729 15.7812 58.2451 15.1543C57.8232 14.5273 57.6123 13.8008 57.6123 12.9746H60.2578C60.2578 14.3867 61.1016 15.0928 62.7891 15.0928C63.416 15.0928 63.9053 14.9668 64.2568 14.7148C64.6084 14.457 64.7842 14.0996 64.7842 13.6426Z" fill="white"/>
</svg>
