<svg width="11" height="11" viewBox="0 0 11 11" fill="none" xmlns="http://www.w3.org/2000/svg">
<path d="M8.55586 5.07078L3.66072 0.17573C3.5475 0.0624223 3.39637 0 3.23521 0C3.07406 0 2.92292 0.0624223 2.80971 0.17573L2.44921 0.536134C2.21464 0.770977 2.21464 1.15267 2.44921 1.38715L6.55978 5.49772L2.44465 9.61285C2.33143 9.72616 2.26892 9.8772 2.26892 10.0383C2.26892 10.1995 2.33143 10.3506 2.44465 10.464L2.80514 10.8243C2.91845 10.9376 3.0695 11 3.23065 11C3.39181 11 3.54294 10.9376 3.65616 10.8243L8.55586 5.92475C8.66935 5.81108 8.73168 5.65932 8.73132 5.49799C8.73168 5.33603 8.66935 5.18436 8.55586 5.07078Z" fill="white"/>
</svg>
