<svg width="23" height="23" viewBox="0 0 23 23" fill="none" xmlns="http://www.w3.org/2000/svg">
<path d="M22.0418 23C21.7964 23 21.5511 22.9061 21.3642 22.7192L14.6751 16.03C14.3004 15.6553 14.3004 15.0497 14.6751 14.675C15.0498 14.3002 15.6554 14.3002 16.0302 14.675L22.7193 21.3641C23.094 21.7388 23.094 22.3445 22.7193 22.7192C22.5324 22.9061 22.2871 23 22.0418 23Z" fill="white"/>
<path d="M9.34375 18.6875C4.19175 18.6875 0 14.4957 0 9.34375C0 4.19175 4.19175 0 9.34375 0C14.4957 0 18.6875 4.19175 18.6875 9.34375C18.6875 14.4957 14.4957 18.6875 9.34375 18.6875ZM9.34375 1.91667C5.24879 1.91667 1.91667 5.24879 1.91667 9.34375C1.91667 13.4387 5.24879 16.7708 9.34375 16.7708C13.4387 16.7708 16.7708 13.4387 16.7708 9.34375C16.7708 5.24879 13.4387 1.91667 9.34375 1.91667Z" fill="white"/>
</svg>
